<?xml version="1.0" encoding="utf-8"?>
<!-- Generator: Adobe Illustrator 17.0.0, SVG Export Plug-In . SVG Version: 6.00 Build 0)  -->
<!DOCTYPE svg PUBLIC "-//W3C//DTD SVG 1.1//EN" "http://www.w3.org/Graphics/SVG/1.1/DTD/svg11.dtd">
<svg version="1.1" id="Layer_1" xmlns="http://www.w3.org/2000/svg" xmlns:xlink="http://www.w3.org/1999/xlink" x="0px" y="0px"
	 width="710px" height="610px" viewBox="0 0 710 610" enable-background="new 0 0 710 610" xml:space="preserve">
<g>
	<polygon fill="#066EAE" points="705,185.771 355,605.022 505.434,226.293 	"/>
	<polygon fill="#86B7D8" points="705,185.771 505.434,226.293 452.352,5.041 523.162,5.041 	"/>
	<g>
		<polygon fill="#C3DCEC" points="355,605.02 5.02,185.8 5,185.77 5.04,185.78 204.57,226.29 		"/>
		<polyline fill="none" points="5.01,185.81 5.02,185.8 5.04,185.78 		"/>
	</g>
	<polygon fill="#C3DCEC" points="505.43,226.29 204.57,226.29 257.65,5.04 452.35,5.04 	"/>
	<polygon fill="#86B7D8" points="505.434,226.293 355,605.022 204.566,226.293 	"/>
	<polygon fill="#FFFFFF" stroke="#066EAE" stroke-width="0.25" stroke-miterlimit="10" points="452.35,5.04 257.65,5.04 
		204.57,226.29 5.04,185.78 186.85,5.02 	"/>
	<polyline fill="none" stroke="#066EAE" stroke-width="0.25" stroke-miterlimit="10" points="186.85,5.02 5,185.77 5.02,185.8 
		355,605.02 705,185.77 523.16,5.04 452.35,5.04 	"/>
</g>
</svg>
